<svg width="1281" height="858" viewBox="0 0 1281 858" fill="none" xmlns="http://www.w3.org/2000/svg">
<circle cx="1232" cy="343" r="6.48" transform="rotate(-180 1232 343)" fill="#444444" stroke="#444444" stroke-width="1.04"/>
<circle cx="485" cy="22" r="6.48" transform="rotate(-180 485 22)" fill="#444444" stroke="#444444" stroke-width="1.04"/>
<circle cx="455" cy="44" r="6.48" transform="rotate(-180 455 44)" fill="#444444" stroke="#444444" stroke-width="1.04"/>
<circle cx="440" cy="65" r="6.48" transform="rotate(-180 440 65)" fill="#444444" stroke="#444444" stroke-width="1.04"/>
<circle cx="312" cy="196" r="6.48" transform="rotate(-180 312 196)" fill="#444444" stroke="#444444" stroke-width="1.04"/>
<circle cx="290" cy="210" r="6.48" transform="rotate(-180 290 210)" fill="#444444" stroke="#444444" stroke-width="1.04"/>
<circle cx="395" cy="65" r="6.48" transform="rotate(-180 395 65)" fill="#444444" stroke="#444444" stroke-width="1.04"/>
<circle cx="274" cy="157" r="6.48" transform="rotate(-180 274 157)" fill="#444444" stroke="#444444" stroke-width="1.04"/>
<circle cx="272" cy="106" r="6.48" transform="rotate(-180 272 106)" fill="#444444" stroke="#444444" stroke-width="1.04"/>
<circle cx="242" cy="106" r="6.48" transform="rotate(-180 242 106)" fill="#444444" stroke="#444444" stroke-width="1.04"/>
<circle cx="276" cy="232" r="6.48" transform="rotate(-180 276 232)" fill="#444444" stroke="#444444" stroke-width="1.04"/>
<circle cx="475" cy="248" r="6.48" transform="rotate(-180 475 248)" fill="#444444" stroke="#444444" stroke-width="1.04"/>
<circle cx="488.453" cy="211" r="6.48" transform="rotate(-180 488.453 211)" fill="#444444" stroke="#444444" stroke-width="1.04"/>
<circle cx="421" cy="241" r="6.48" transform="rotate(-180 421 241)" fill="#444444" stroke="#444444" stroke-width="1.04"/>
<circle cx="529" cy="237" r="6.48" transform="rotate(-180 529 237)" fill="#444444" stroke="#444444" stroke-width="1.04"/>
<circle cx="541.453" cy="227" r="6.48" transform="rotate(-180 541.453 227)" fill="#444444" stroke="#444444" stroke-width="1.04"/>
<circle cx="529.453" cy="204" r="6.48" transform="rotate(-180 529.453 204)" fill="#444444" stroke="#444444" stroke-width="1.04"/>
<circle cx="529" cy="164" r="6.48" transform="rotate(-180 529 164)" fill="#444444" stroke="#444444" stroke-width="1.04"/>
<circle cx="570" cy="222" r="6.48" transform="rotate(-180 570 222)" fill="#444444" stroke="#444444" stroke-width="1.04"/>
<circle cx="539" cy="301" r="6.48" transform="rotate(-180 539 301)" fill="#444444" stroke="#444444" stroke-width="1.04"/>
<circle cx="553.453" cy="254" r="6.48" transform="rotate(-180 553.453 254)" fill="#444444" stroke="#444444" stroke-width="1.04"/>
<circle cx="336" cy="343" r="6.48" transform="rotate(-180 336 343)" fill="#444444" stroke="#444444" stroke-width="1.04"/>
<circle cx="388" cy="284" r="6.48" transform="rotate(-180 388 284)" fill="#444444" stroke="#444444" stroke-width="1.04"/>
<circle cx="305" cy="265" r="6.48" transform="rotate(-180 305 265)" fill="#444444" stroke="#444444" stroke-width="1.04"/>
<circle cx="414.453" cy="298" r="6.48" transform="rotate(-180 414.453 298)" fill="#444444" stroke="#444444" stroke-width="1.04"/>
<circle cx="423" cy="285" r="6.48" transform="rotate(-180 423 285)" fill="#444444" stroke="#444444" stroke-width="1.04"/>
<circle cx="315" cy="432" r="6.48" transform="rotate(-180 315 432)" fill="#444444" stroke="#444444" stroke-width="1.04"/>
<circle cx="298" cy="479" r="6.48" transform="rotate(-180 298 479)" fill="#444444" stroke="#444444" stroke-width="1.04"/>
<circle cx="274.453" cy="389" r="6.48" transform="rotate(-180 274.453 389)" fill="#444444" stroke="#444444" stroke-width="1.04"/>
<circle cx="356" cy="63" r="6.48" transform="rotate(-180 356 63)" fill="#444444" stroke="#444444" stroke-width="1.04"/>
<circle cx="321" cy="65" r="6.48" transform="rotate(-180 321 65)" fill="#444444" stroke="#444444" stroke-width="1.04"/>
<circle cx="364.453" cy="77" r="6.48" transform="rotate(-180 364.453 77)" fill="#444444" stroke="#444444" stroke-width="1.04"/>
<circle cx="211.453" cy="697" r="6.48" transform="rotate(-180 211.453 697)" fill="#444444" stroke="#444444" stroke-width="1.04"/>
<circle cx="281" cy="601" r="6.48" transform="rotate(-180 281 601)" fill="#444444" stroke="#444444" stroke-width="1.04"/>
<circle cx="402" cy="492" r="6.48" transform="rotate(-180 402 492)" fill="#444444" stroke="#444444" stroke-width="1.04"/>
<circle cx="211" cy="568" r="6.48" transform="rotate(-180 211 568)" fill="#444444" stroke="#444444" stroke-width="1.04"/>
<circle cx="48.4531" cy="836" r="6.48" transform="rotate(-180 48.4531 836)" fill="#444444" stroke="#444444" stroke-width="1.04"/>
<circle cx="107.453" cy="678" r="6.48" transform="rotate(-180 107.453 678)" fill="#444444" stroke="#444444" stroke-width="1.04"/>
<circle cx="274.453" cy="723" r="6.48" transform="rotate(-180 274.453 723)" fill="#444444" stroke="#444444" stroke-width="1.04"/>
<circle cx="395" cy="258" r="6.48" transform="rotate(-180 395 258)" fill="#444444" stroke="#444444" stroke-width="1.04"/>
<circle cx="485" cy="268" r="6.48" transform="rotate(-180 485 268)" fill="#444444" stroke="#444444" stroke-width="1.04"/>
<circle cx="507" cy="460" r="6.48" transform="rotate(-180 507 460)" fill="#444444" stroke="#444444" stroke-width="1.04"/>
<circle cx="863.562" cy="446.467" r="6.48" transform="rotate(-180 863.562 446.467)" fill="#444444" stroke="#444444" stroke-width="1.04"/>
<circle cx="984.453" cy="377" r="6.48" transform="rotate(-180 984.453 377)" fill="#444444" stroke="#444444" stroke-width="1.04"/>
<path d="M1271.26 358.527L1275.83 357.51L1278.88 354.968L1280.41 357.51L1279.39 359.545H1276.85L1278.38 361.579L1278.88 364.121L1276.85 366.155L1274.31 367.172L1272.28 369.206L1268.21 371.241L1265.16 373.275L1259.06 375.817L1260.59 373.783L1264.65 370.732L1267.19 367.172L1265.67 364.63L1263.13 362.087L1262.11 358.527L1263.64 357.002L1266.18 357.51L1271.26 358.527ZM1273.8 329.542H1277.36L1278.38 331.576L1277.36 335.644H1274.82L1275.33 338.695L1272.28 338.186L1271.77 333.61L1274.31 332.593L1273.8 329.542ZM25.9994 740.938L24.9829 744.497L25.9994 746.023L27.5242 748.566V750.6L21.9333 751.617L20.4085 750.6L16.8506 751.108L17.8671 749.583L14.3092 748.057V747.549V745.514L17.8671 742.463L20.4085 741.446L23.9664 738.395L25.9994 737.887V740.938ZM25.9994 835.015L23.9664 835.523L25.4912 838.066L23.4581 839.083H21.425L19.3919 837.557L16.3423 835.015L14.8175 832.981L12.2762 833.998L12.7844 831.455L11.2596 828.404L8.20998 827.387L3.63558 825.353L1.6025 822.81L0.585938 821.285L1.09423 818.234L3.12728 816.199L4.14385 812.64H5.16036L8.71827 814.165L12.7844 818.234L13.2927 820.268L15.3258 822.81L17.3588 825.861L19.3919 827.895L22.9498 829.421L23.9664 830.947L26.5077 831.455L28.5408 833.998L25.9994 835.015ZM48.8715 842.643L43.2806 844.677L46.8385 845.185L45.3137 846.711H41.2475L39.2145 849.762L38.1979 852.305L39.7227 854.847L38.7061 856.881L34.64 855.356L32.0987 853.83L32.6069 850.779L31.0821 849.762H29.0491L28.0325 849.253L25.4912 847.728L22.4415 845.694L20.9167 842.643L22.4415 842.134L23.4581 840.609L27.016 843.151L30.0656 842.134L32.6069 838.574H34.1318L35.6566 841.626L39.2145 842.643H42.2641L45.8219 841.626H46.8385L48.8715 840.1L53.446 837.557L57.0039 836.032V837.557L53.9542 839.591L52.4295 842.643H48.8715ZM119.013 818.742L117.488 817.216L118.504 815.182L120.538 812.131L123.079 809.589L126.129 807.046L127.653 806.537V808.571L126.129 811.114L124.604 813.148L123.079 814.674L120.029 818.234L119.013 818.742ZM147.476 823.827L146.459 822.302L148.492 820.776L150.017 821.285L147.476 823.827ZM155.1 821.285L151.034 821.793L151.542 820.776L151.034 819.759L152.559 819.251H156.625L155.1 821.285ZM164.249 168.339L159.674 164.78L157.133 164.271L155.608 161.729L155.1 160.203L158.15 161.22L157.641 159.186L154.592 157.152L153.575 155.118V153.084L150.525 150.032L147.476 144.439L143.918 137.828L138.835 128.674L134.769 122.572L131.72 116.978L133.244 113.419L134.261 109.351L136.802 108.333L140.36 107.316L143.41 108.333L146.968 111.385L151.034 112.91L154.083 114.944L156.116 117.995L155.608 120.03L156.625 121.047L158.15 125.115L160.183 127.657L162.724 128.674L165.774 130.2L169.331 133.251L170.348 136.302L172.381 138.845L170.856 140.879L169.84 143.422L169.331 145.456L167.807 146.981L168.315 151.05L167.807 156.135L168.823 159.186L170.856 160.203L169.331 161.22L170.348 165.797L172.381 167.831L172.889 170.882H170.348L167.807 170.373L164.249 168.339ZM146.459 709.918L142.901 712.46L145.443 715.512L143.41 717.546L141.885 720.088H139.344L135.277 721.614L132.736 722.631L132.228 724.156L128.162 726.191H125.62L122.571 728.225L121.046 733.818L119.521 737.378L117.996 740.429L116.98 739.921L114.438 742.972L109.864 745.006L111.389 746.531L109.864 748.566L110.88 749.583L106.306 750.6L103.765 753.651L102.24 755.685L99.1902 759.245L95.6324 760.77L93.091 761.279H90.0414L86.4835 763.313H82.4173L80.3843 762.804L76.3181 762.296L73.7768 762.804L70.7272 762.296L66.661 761.279L64.1196 758.736L60.5618 757.719L58.5287 756.702L54.4625 756.193L51.9212 755.176L48.3633 754.668H45.3137L43.7889 755.176L41.7558 753.142L41.2475 749.074L38.7061 746.023L36.6731 744.497L34.64 742.463L36.1648 738.904L36.6731 736.361H39.2145L38.1979 734.327L34.64 731.784L35.1483 728.225L35.6566 726.191V724.156L36.1648 720.088L38.1979 717.037L41.2475 715.512L43.2806 713.986L44.8054 711.443L44.2972 707.375L46.8385 707.884L49.8881 705.85L46.3302 704.833L44.8054 701.781L47.855 703.307H50.3964L52.9377 704.324L55.9873 703.307L51.4129 701.273L49.3798 699.239L45.8219 698.73L46.8385 695.171L49.3798 694.662L51.9212 691.102L52.9377 688.56L53.9542 689.068L54.9708 682.966L54.4625 679.915L55.4791 674.83L52.9377 667.202L49.8881 662.116L46.8385 658.048L45.8219 653.98L42.2641 650.42L40.231 647.369H37.6896L35.6566 646.861L34.1318 643.301L33.1152 640.758L32.6069 636.69L31.0821 634.148L30.0656 631.605L26.5077 631.096L25.9994 630.079L23.4581 629.571L20.9167 629.062L19.3919 626.52L17.8671 624.486L18.3754 619.4L17.8671 617.366L20.4085 615.841L21.9333 616.858H23.4581L24.9829 615.841L28.5408 613.807L31.0821 611.773L34.64 606.687L36.6731 604.145L39.2145 602.619L41.2475 599.059L42.2641 598.042L42.7723 595.5L45.8219 592.449L47.855 587.872L49.3798 585.838L48.3633 588.38L51.9212 584.312V586.855L50.9046 588.889L52.9377 587.363L55.4791 583.295L56.4956 582.278L57.5122 580.244L60.0535 579.227L61.5783 579.736L64.1196 580.244L66.1527 578.718L70.2189 580.244L66.661 581.261L70.7272 582.787L73.7768 586.346L76.8264 588.38L79.876 591.432L80.8925 593.466V594.991L83.9422 598.042L85.467 600.585L86.9918 601.094L88.0083 602.111L88.5166 604.653L91.5662 609.23L94.6158 611.264L97.6654 612.281L101.223 614.824H103.256H105.798L110.88 617.366L107.323 619.909L108.847 621.943L110.88 619.909L113.93 620.926L113.422 622.96H117.488L120.538 624.994L122.571 626.011L124.095 628.045H125.62V630.079H126.637L127.653 632.114L128.67 634.148L127.145 637.707L125.112 640.25L125.62 643.301L126.129 646.352L128.67 645.335L133.244 647.369L135.277 649.403L136.294 648.386L139.852 649.912L142.393 652.455V654.997L144.426 658.557L146.968 658.048L147.984 654.489L149.509 657.031L149.001 660.082L147.476 662.625L146.968 666.693L147.984 667.71L146.968 670.761L149.001 673.304V674.83L150.017 675.847L147.984 678.389L144.934 677.372L142.393 675.847L141.885 674.321L139.852 674.83L137.31 673.812L134.261 672.287L132.736 672.795L130.703 676.864L129.686 680.423L128.67 682.966L126.637 686.526L127.145 688.051L126.129 690.594L124.604 691.611L124.095 696.696L126.637 699.747L129.178 700.256L131.72 700.764L134.769 701.273L138.835 702.29L140.868 701.273H142.393L144.934 700.256H149.001L150.017 701.273L151.542 700.256L154.592 701.273L157.641 701.781H159.166L161.199 703.307L159.166 704.833L156.116 705.85L155.608 706.867L153.575 707.375L151.542 709.409L149.001 709.918H146.459ZM175.939 799.927L174.414 800.944L173.906 797.893L176.956 796.367L175.939 798.91V799.927ZM138.327 603.128L137.819 601.094L139.344 594.483L141.377 598.551L140.36 601.094L139.344 602.619L138.327 603.128ZM178.48 794.333L177.972 792.299V789.248L178.48 788.231L180.513 788.739L180.005 791.79L178.989 793.316L178.48 794.333ZM180.513 798.401L179.497 797.384L183.563 794.333L186.104 792.807L186.613 794.841L183.055 796.875L180.513 798.401ZM143.41 619.909L141.377 616.349L141.885 615.841H143.918L147.476 617.366L150.525 621.435L152.05 621.943L154.083 625.503L155.1 628.554L156.116 630.079V631.605L154.592 630.079L151.034 625.503L148.492 621.943L143.41 619.909ZM144.934 588.889L143.918 590.923L144.934 593.974L142.901 595.5L140.36 590.415L138.835 587.363L138.327 584.821L141.885 585.838L142.901 588.38L144.934 588.889ZM151.542 611.773L148.492 611.264L144.934 604.653L143.918 598.551H145.951L147.984 602.111L147.476 605.162L148.492 608.213L151.542 611.773ZM185.596 788.739L184.58 789.248L185.596 784.671L186.613 781.62L187.629 779.077L188.137 779.586L187.629 782.128L186.104 786.705L185.596 788.739ZM188.137 775.517L187.629 774.5L188.137 771.958L189.662 769.415H190.679L189.154 772.975L188.137 775.517ZM147.984 544.139L147.476 553.292L149.509 553.801L146.968 562.954L143.41 564.988L142.393 572.108L140.36 578.21L137.31 573.125L139.344 567.531V563.463L139.852 558.378L140.868 553.801L142.901 548.207L143.41 544.647L142.901 542.613L144.934 533.968L146.968 532.951L147.476 528.883L152.559 531.426V537.02L150.525 541.088L150.017 543.122L147.984 544.139ZM173.906 664.659L170.348 662.625L173.906 661.608L175.939 662.116L177.464 662.625L176.447 663.642L173.906 664.659ZM189.154 766.364L188.646 764.838L190.171 762.296L192.712 759.245L195.761 757.211L196.27 757.719L195.253 758.736L194.237 760.262L191.695 763.313L190.679 765.855L189.154 766.364ZM191.695 745.006L190.679 742.463L189.154 741.955L187.629 739.412L186.104 736.87L185.596 734.327L186.104 730.259L187.121 727.208H188.646V731.784L189.662 734.327L191.695 734.835V735.344L189.662 736.361L190.679 738.904L192.204 739.921L194.237 742.463L196.778 741.446L197.286 744.497L196.778 745.514L194.237 746.023L191.695 745.006ZM178.989 629.062L176.956 627.537V624.486L178.989 623.469L180.513 628.045L178.989 629.062ZM184.071 643.81L181.022 645.844L182.038 641.776L181.53 638.216L180.513 635.673L180.005 632.622L183.055 633.639L184.58 639.233L184.071 643.81ZM197.286 750.091L195.761 748.566L198.303 747.04L199.828 745.514L200.844 742.972L202.369 739.921L202.877 735.852L204.402 736.87L203.386 739.921L202.877 741.955L202.369 744.497L200.844 747.04L199.828 749.074L197.286 750.091Z" stroke="#444444" stroke-width="1.16263" stroke-linejoin="round"/>
<path d="M196.27 658.556L189.154 660.59L187.629 665.675L193.22 668.727L196.778 673.303L197.795 677.371L196.778 681.44L195.762 684.999V690.085L194.237 698.73L193.22 707.883L191.695 711.443L189.662 714.494L187.121 715.511L185.596 724.156L183.563 725.681L182.547 721.105L179.497 722.63L177.464 727.715L172.889 731.784L173.398 734.835H171.365V738.903L170.348 737.377L169.332 742.971L167.807 742.463L166.79 739.412L167.807 737.886V733.309V728.224L170.348 723.647L172.381 720.596L175.939 717.545L176.956 710.934L174.922 706.866L172.889 704.323L169.84 705.34L167.807 701.781L168.315 699.238L167.298 694.661L170.348 690.085V685.508L168.823 684.491L167.298 678.897L171.365 680.423L173.398 682.965L177.972 680.931L181.53 678.389L183.563 669.235L183.055 665.675L185.596 658.556L183.055 657.539L182.038 656.013L183.563 654.996L185.596 654.488L187.121 650.928L189.662 655.505L190.171 658.556L191.187 658.048L189.662 651.437L192.204 649.403V645.334L194.237 643.3L196.778 649.403L198.811 651.437L198.303 658.556H196.27ZM200.336 617.366L194.745 614.314L193.22 610.755V606.178L191.187 598.55L189.662 594.482H185.596L182.038 599.059L185.088 601.093L188.646 609.738H186.104V607.704L182.547 606.178L179.497 602.11L174.414 607.195L172.381 606.687L167.807 611.263L164.757 611.772L162.724 609.229L163.741 607.195L168.315 609.229L165.265 604.653L166.282 603.127L168.315 603.635L170.348 600.076H175.431L173.398 597.025L167.807 598.042L160.691 599.059L159.166 596.008L160.183 593.974L165.265 594.991L169.84 593.465L169.332 591.431L172.381 589.397L175.939 590.922H180.005L188.137 592.448L190.171 592.956L194.745 596.516L194.237 600.584L194.745 606.687L196.27 611.772L200.844 615.84L200.336 617.366ZM201.861 633.13L197.795 633.638V631.096L194.745 630.587L192.712 632.621L191.695 631.604L194.237 629.57L199.828 627.536L203.894 628.045L205.927 629.57L203.386 630.079V632.621L201.861 633.13ZM152.559 530.916V525.831L156.625 521.255L160.691 514.644L163.741 512.101L167.807 508.033L171.365 505.49L177.972 501.422L181.53 496.845L185.596 494.811L189.154 492.777L191.695 488.2L195.762 485.658L198.303 482.098L202.877 477.013L204.91 476.504V479.556L204.402 487.183L200.336 491.76L197.286 495.32L195.253 497.862L190.679 502.439V507.016L187.629 511.084L183.563 514.135L181.53 517.695L177.464 516.169L175.939 519.22V520.746L172.381 521.763L169.84 523.797L169.332 527.357L166.282 529.899L160.183 529.391L152.559 530.916ZM195.253 582.786L191.695 588.888L189.662 583.295L185.596 582.277L181.022 583.295L176.447 579.226L171.365 579.735L163.232 578.718L164.757 577.701L161.707 572.616L164.757 570.581V567.022L166.282 564.479L164.249 558.885L166.79 556.851L166.282 553.8L166.79 549.732L173.398 548.206L174.922 545.664L178.989 543.121L183.055 542.104H187.629L191.187 544.647L189.662 548.206L190.679 551.766L194.745 552.275L195.762 554.309L197.286 559.902L201.352 562.954L204.91 564.988L206.943 566.513L209.993 570.073L214.059 573.124L218.634 575.158L219.142 577.192L217.109 580.243L215.076 580.752L214.059 584.312L213.043 588.38H211.01L209.993 585.329L207.452 586.346L204.91 582.786L199.828 580.752L195.762 584.82L195.253 582.786ZM233.882 617.874L230.832 618.891L228.291 619.4L223.716 618.383L228.291 615.84L225.749 614.314L222.7 616.349L220.158 615.332L222.192 609.738L225.241 608.212L227.783 609.229L229.816 606.178L227.783 605.161V603.127L224.733 600.076L226.258 599.059L230.832 600.076L232.357 602.618L234.39 604.653L232.357 606.687L234.39 609.738L236.423 610.246L236.931 613.297L240.489 612.28L238.456 616.349L235.915 617.366L233.882 617.874ZM204.91 410.905L203.894 406.328L207.452 403.785L214.059 402.768L221.175 404.802L218.634 408.362L215.584 410.905L211.01 413.447L206.435 412.939L204.91 410.905ZM968.331 267.501L967.823 271.569L967.315 272.586L966.298 271.061H964.265V268.518L964.773 267.501H968.331ZM241.506 605.67L239.473 604.144L236.423 603.127L234.898 602.11L237.948 598.55L239.473 599.059L240.998 600.076H244.047L244.555 602.618H240.998L246.08 605.161L241.506 605.67ZM233.882 580.752L228.291 574.65L232.357 576.684L235.915 579.735L239.981 582.277L245.572 584.312L241.506 585.837L238.456 583.295L233.882 580.752ZM248.622 594.991L247.605 598.042L248.113 601.093H246.08L243.539 599.059L241.506 596.516L244.047 596.008H246.588L248.622 594.991ZM251.671 611.263L246.588 613.297L247.605 609.738L246.08 610.246L243.031 611.772L241.506 609.738L245.064 609.229V607.704L248.113 606.687V609.229L250.146 608.721L253.704 605.161L254.213 609.738L251.671 611.263ZM254.213 592.448L249.638 591.939L252.179 589.397L255.737 586.346V590.414L254.213 592.448ZM282.167 587.363L280.643 590.414L282.167 591.431L280.643 591.939L278.609 591.431L275.052 593.465L270.985 592.956L268.952 590.414H264.886L260.82 591.939L260.312 594.482L261.328 596.516L258.787 602.618H256.246L255.229 604.144H252.688L254.721 600.076L257.262 598.042L255.229 597.025L257.77 593.465L256.754 589.397L257.77 586.854H259.803L261.328 587.871L262.345 586.346L260.312 585.837L263.361 583.295L265.394 582.277L270.477 581.26L268.952 583.295L277.085 582.786L281.659 583.803L282.167 587.363ZM920.046 284.282L921.062 285.808L920.554 289.367L921.062 291.91H919.029L918.013 291.402V287.842L919.537 285.808L920.046 284.282ZM922.587 335.135L923.603 336.66L922.587 339.203L920.554 341.745L919.537 341.237L919.029 339.203V338.186L919.537 335.135L921.062 333.101L922.587 332.592V335.135ZM911.405 313.777L911.913 310.217L910.897 309.708V306.149L911.913 303.606V302.589L913.946 302.081V299.538L915.471 300.046V298.012L917.504 295.978L919.537 298.012L918.521 300.046L919.029 302.081V303.606L920.046 304.623L920.554 306.149L919.537 306.657L920.554 308.183L924.112 310.725L923.095 311.742H921.57L920.554 314.794L921.062 316.828L920.554 319.37L921.57 321.404L920.046 323.439L918.521 322.93L919.029 318.862L919.537 315.811L918.521 314.285L916.488 315.811L914.455 315.302L913.438 317.845L911.913 316.828L911.405 313.777ZM273.527 538.036L270.477 534.476L271.494 530.916L275.56 530.408L278.101 532.442L280.643 537.019L281.151 539.561L279.626 540.578L277.085 539.053L273.527 538.036ZM858.545 679.406L859.053 680.423L858.037 680.931L857.02 680.423H854.987L854.479 679.914L853.971 678.897H852.954L852.446 678.389V677.88L853.971 676.863L854.479 676.354L855.495 675.846L857.528 675.337L858.037 677.371L858.545 679.406ZM850.921 678.389V679.914L849.904 680.423H848.888H848.38V679.914L849.396 678.897L850.413 678.389H850.921ZM847.871 679.914L847.363 682.457L846.855 681.948L847.871 679.914ZM845.838 682.965V683.474L845.33 684.999H844.313V683.474H844.822L845.838 682.965ZM839.739 688.559V689.068L838.214 690.085V689.576V688.559L838.722 687.542L839.739 688.559ZM900.731 350.39L902.256 348.356L901.24 343.78L902.256 341.745L904.798 337.169L906.322 333.609V332.083L906.831 329.032H908.355V324.964L909.88 320.896L910.897 321.404L911.405 324.456L911.913 328.015V331.575L912.93 339.203L910.389 336.152L909.372 338.186V341.745L908.355 343.78L905.814 345.305L906.322 348.356L905.306 353.441L904.289 354.967L903.781 361.578L902.764 363.612L901.748 361.578V366.663L904.289 370.223V372.257L905.306 372.765L905.814 375.308L905.306 377.342L903.781 374.8L902.256 373.782L901.24 371.748L900.223 369.206L899.715 365.646L899.207 364.629V360.561V356.493L900.731 350.39ZM895.649 339.711L896.157 340.728L893.616 342.254L892.599 344.288L889.549 343.78V342.254L893.107 340.22L895.649 339.711ZM304.531 583.803L300.465 582.786L305.039 579.735L309.106 578.718L314.188 580.752L318.254 583.803L316.73 585.837L313.68 585.329L304.531 583.803ZM882.942 342.762L883.958 347.848L882.434 348.356L881.925 346.322V343.271L882.942 342.762ZM882.942 338.694L885.992 339.203L885.483 340.22H882.942L881.417 342.762H880.909L882.942 338.694ZM423.975 623.976L423.466 625.502L419.908 626.519L418.892 623.976L416.859 624.485L414.826 627.028L412.793 624.485L413.809 621.942L416.859 619.908L418.892 621.942L421.433 621.434L423.975 623.976ZM392.462 246.143L391.954 243.092H390.937H390.429L391.445 238.006L392.97 236.989L395.003 237.498L393.987 239.024L394.495 240.041L392.97 242.075L392.462 246.143ZM416.35 214.106L413.809 214.614L412.284 217.157L410.251 219.191L409.743 218.683L409.235 220.717L408.218 219.7L411.268 215.631L411.776 216.14L415.334 213.089L416.35 214.106ZM444.814 200.376L442.781 196.816L441.256 196.307L439.731 194.273L442.781 193.765L444.305 192.748L449.896 190.714L451.421 192.748L448.371 195.29L446.338 198.342L444.814 200.376ZM471.244 195.799L467.177 194.782L462.603 189.697L464.128 188.68V186.646H466.161L470.735 190.714L473.277 192.239L471.752 193.256L471.244 195.799Z" stroke="#444444" stroke-width="1.16263" stroke-linejoin="round"/>
<path d="M454.98 625.502L451.931 628.045L451.422 630.587L447.864 632.621L441.765 632.113L434.649 628.553L427.025 629.57L424.992 626.519L426.517 623.468L419.401 620.417L413.81 619.908L409.744 617.874L412.286 623.468L407.203 631.096L404.153 632.113L403.137 629.062L405.678 624.993L404.153 622.451V618.383H407.711L410.761 615.84L415.335 615.331L419.91 614.314L428.55 617.874L432.108 620.925L440.24 616.348L441.765 619.4L449.389 618.383L452.439 617.874L457.013 614.314L458.538 609.738L461.079 608.212L465.146 609.229L464.637 615.84L462.604 619.4L457.013 621.942L454.98 625.502ZM473.786 199.867L471.753 196.307L473.786 195.799L476.836 197.833L477.852 199.867L477.344 202.918L473.786 199.867ZM478.869 602.618L480.902 604.652L483.952 604.144L482.935 609.229L477.344 607.704L472.261 610.246L468.195 604.652L464.129 608.212L460.063 606.178L461.588 602.11L464.637 600.076L468.703 601.601L472.261 596.516L474.803 593.973L476.836 600.076L478.869 602.618ZM772.649 326.49L772.14 323.947L770.616 321.404L773.157 321.913L774.174 322.93L773.665 327.507L772.649 329.032L770.616 328.524L772.649 326.49ZM758.417 327.507L758.925 328.524L759.434 332.592L758.417 336.152L757.401 335.643L756.892 331.575L757.401 328.015L758.417 327.507ZM762.992 518.203V519.729L758.925 524.306L756.892 524.814L753.843 527.357H752.318L750.285 530.408H747.744L746.727 529.391L749.268 526.848L750.793 525.323L752.318 522.78H754.351L757.401 521.763L760.45 519.22L762.992 518.203ZM743.169 316.828L747.744 316.319L745.202 315.302V313.268H747.235L746.727 310.217L744.694 309.708L744.186 306.149L747.744 305.132L745.71 303.606L747.744 301.572L749.777 299.029L754.351 297.504L755.368 298.521L755.876 301.063L751.81 302.589V303.606L757.401 304.115L758.417 305.64L755.368 305.132L755.876 308.183L757.909 310.725L760.958 315.811L759.942 316.828L757.401 315.811V319.37L753.334 318.862L744.694 320.387H741.136L738.086 319.37L737.578 318.353H739.103L743.169 316.828ZM727.921 532.951L728.937 529.899L733.004 533.968H737.07L736.562 534.985L734.02 535.493L731.987 534.985L729.954 535.493L727.921 534.476L726.904 533.459L727.921 532.951ZM490.559 574.649L490.051 583.803L485.985 580.243L481.41 585.329L482.427 590.922L480.902 593.973L479.377 590.414L475.819 592.448L476.836 588.888L478.869 584.82L480.394 580.243L482.427 577.701L486.493 572.107L488.018 567.022L492.592 561.428L496.15 560.919L496.658 558.377H498.183L496.658 561.428L494.625 566.005L491.576 570.073L490.559 574.649ZM545.96 203.935L547.994 197.833L551.551 195.799L552.568 201.901L556.126 205.461L555.618 211.563L555.109 215.123L553.584 216.648L549.518 216.14L548.502 212.072L545.96 209.529V203.935ZM517.497 255.805L515.464 251.737L520.039 252.245L522.072 253.771L520.547 257.33L517.497 255.805ZM677.094 557.36L675.569 559.902L673.536 559.394L672.011 557.36L673.028 554.817L674.044 553.8L675.569 553.291L677.602 554.309L677.094 557.36Z" stroke="#444444" stroke-width="1.16263" stroke-linejoin="round"/>
<path d="M556.634 238.006L555.109 231.395L553.585 233.938L551.552 235.972L549.519 231.904L548.502 226.31L546.469 228.344L540.878 225.293L538.845 226.31L534.27 223.259L532.237 222.242L529.188 224.276L527.155 221.733V219.191L524.613 218.174V214.106L527.663 211.054L530.204 205.969H531.729V202.409L534.27 200.884L534.779 197.833L536.303 197.324V204.952L535.287 208.003L539.353 205.461L540.878 206.478L539.353 210.037L541.894 211.054L543.419 214.106L540.37 216.648L541.894 219.191L544.944 220.208L547.994 218.682L549.01 219.191L549.519 221.733L551.043 222.242L550.535 219.191L553.585 223.259L556.126 224.276L558.159 229.361L559.176 234.446L557.651 235.464L556.634 238.006ZM639.99 554.308L638.974 555.325L636.941 554.817L634.908 553.8L636.941 552.783H638.974L639.99 554.308ZM717.248 389.546L719.789 390.055V391.072L718.772 392.089H718.264L716.739 391.581V390.563L717.248 389.546ZM716.231 395.14L718.772 397.174V398.7L717.756 399.208L715.723 398.191L715.214 395.649L716.231 395.14ZM619.66 538.544L621.185 539.053L622.201 538.544L624.234 539.561L626.776 540.07V540.578L625.251 541.595L623.218 541.087L622.201 540.578L620.168 541.087L619.66 540.578V538.544ZM704.541 403.785L706.574 403.277L705.557 402.26L706.574 400.734L707.59 398.191L708.607 395.649L710.64 395.14L710.132 393.615L711.148 392.089L712.673 393.615L712.165 396.666L710.64 398.191L713.181 399.717L715.723 402.26L713.181 403.277L713.69 405.819L711.148 404.294H707.59H703.524L704.541 403.785ZM612.036 305.131L613.052 302.589L611.527 298.521L615.085 295.978L622.201 295.469H624.234L626.776 297.504L632.366 301.572L629.317 302.589L632.875 306.657L628.809 305.64L628.3 306.657L631.858 309.708L629.317 311.742L626.267 310.725L624.234 306.657L620.168 307.674L618.135 305.64L614.069 306.657L612.036 305.131ZM694.375 388.529L695.392 390.563L693.359 391.581H690.817L689.801 390.055L690.817 388.529L692.851 388.021H693.359L694.375 388.529ZM610.003 526.34L611.527 527.357L610.511 524.305H615.594L620.676 527.865L619.151 529.899L616.102 530.916L617.118 535.493L616.61 536.51H614.577L612.544 534.984L609.494 533.967L608.478 531.933L606.445 531.425L604.412 531.933L602.887 530.408V528.882L600.854 529.899L601.87 531.933L600.854 533.967L598.821 515.66L603.395 519.22L608.986 523.288L610.003 526.34ZM689.801 423.109L691.326 424.126L689.801 426.16L690.309 427.686L688.276 429.72L687.26 428.194L685.227 426.669L686.751 425.143L687.768 424.126L688.784 423.618L689.801 423.109ZM598.312 507.524H596.788L596.279 505.999L597.804 503.964L598.312 507.524Z" stroke="#444444" stroke-width="1.16263" stroke-linejoin="round"/>
<path d="M600.346 507.017L598.313 507.525L597.805 504.474H598.821L601.363 505.491V505.999L600.346 507.017ZM688.277 414.465H692.851L689.293 412.431L691.835 410.397L695.392 410.905L698.442 408.871L694.884 407.346L690.818 406.329L685.735 406.837V404.295V401.752L687.768 399.209L689.801 398.701L692.343 399.718L694.376 398.192H696.409L699.967 401.243L700.983 403.786L699.967 405.82L702 406.329L706.066 407.854L708.099 408.363L711.149 410.397L711.657 413.448L713.69 414.974H716.74L717.248 417.516L720.806 420.059L725.889 422.602L729.447 423.619H734.529L735.038 420.059L739.104 419.042L742.662 417.516L741.645 413.957L743.17 408.871L744.695 406.329L746.728 404.295L747.744 400.735L749.269 397.684L748.761 393.616V390.564L752.827 390.056L757.401 388.53L761.976 385.479L765.534 380.394L763.501 378.868H758.418L751.81 381.92L749.777 384.462L746.728 380.903L743.17 378.868L739.612 378.36L736.562 379.377L733.513 381.92L730.971 385.479L725.889 383.954L722.331 385.988L715.723 388.53L714.198 387.513V383.954V381.92L712.674 380.394L713.69 378.36L715.215 375.309L716.74 374.292L715.723 370.732L719.281 369.715L724.364 367.172V365.138L726.397 362.596L722.839 360.562H717.248L714.707 360.053L717.756 357.002L721.314 351.917L724.872 347.34L727.922 346.831L728.43 342.763L729.447 339.204L728.43 335.135L728.938 333.101L731.988 330.05L731.48 328.016L732.496 325.982L737.071 322.931L739.612 323.439L742.153 324.456L746.219 327.507L751.81 328.525L754.86 332.593L756.893 338.695L758.418 342.763L759.943 345.306L764.009 346.323L767.567 348.865L775.191 350.391L780.782 351.917L779.257 349.883L771.633 347.848L765.534 343.78L763.501 340.221L764.517 336.661L768.583 337.678L773.158 334.627L776.207 332.084L776.716 327.507L772.649 319.371H766.042L769.092 317.337L769.6 314.794L774.174 316.828L779.765 321.914L782.815 323.948L787.389 325.473L787.898 328.016L783.831 330.05L777.732 326.999L779.765 331.576L781.798 334.627L783.323 333.61L786.881 335.644L789.422 338.186L791.964 340.729L795.522 341.238H796.538L799.079 340.221L801.113 338.186L800.604 336.661L799.079 337.678L799.588 336.152L801.113 335.644L802.637 337.678L803.146 339.204L804.67 341.238L805.179 342.763L806.195 344.797L808.228 346.831L805.687 342.255L806.195 340.729L809.245 344.797L809.753 346.831H809.245L810.77 347.34V346.323L814.328 345.814L818.902 346.831L817.885 347.34V348.357L816.869 349.883L819.41 348.357L819.919 347.34L821.952 346.831L823.985 347.34L828.559 347.848V348.357H825.001L823.476 350.9L819.41 352.934H821.952L825.001 350.9V353.442L826.018 350.391L830.592 348.865V347.848L832.117 346.831L837.2 344.797L841.774 345.814L844.315 348.865L847.873 350.391L848.382 351.917L850.923 353.442L852.448 353.951L856.006 358.527L858.547 361.07L861.597 363.104L864.646 363.613L867.696 362.596L871.254 360.562L874.303 358.019H876.336L881.419 355.476H884.469H885.994L888.535 356.493L889.043 358.019L888.535 360.562L886.502 361.579L885.485 363.613L881.927 366.664L878.878 369.206L877.353 370.224L874.303 369.715L871.762 371.241L868.204 375.309L867.696 377.343L869.729 381.92V382.937L867.696 385.479L866.679 388.53L867.188 393.616L866.679 397.684L867.188 401.243L867.696 403.278L868.712 402.261H870.745L871.762 401.243L872.27 402.261L871.762 403.786L872.779 405.312V408.363L870.237 411.922L870.745 415.991L869.729 419.042L870.237 421.584L871.254 425.144L874.303 429.212L875.828 433.789L877.861 436.332L879.894 437.349H882.944H884.977L886.502 436.84L890.06 438.874L893.109 439.891L899.209 440.4L901.242 440.908L903.783 440.4L905.816 439.383L909.374 438.874L912.932 435.823L915.473 434.806L917.506 433.281L919.031 428.195L921.064 426.161L920.048 422.093L919.539 418.533L919.031 414.974L918.523 411.922L916.49 408.871L913.948 407.854L910.391 407.346L908.866 406.329L907.849 403.278L906.833 398.192V394.124L906.324 391.073L907.341 390.056H909.374L911.915 392.599L914.457 393.616L915.473 392.599L917.506 393.107L921.064 394.124L920.048 395.65V396.667H920.556V395.65H921.572L923.606 396.667L924.114 396.158L925.639 396.667L926.147 396.158L928.688 396.667L929.705 397.684V398.701L931.23 399.718L932.246 398.192L931.738 397.684L932.246 396.158V395.65L931.23 394.633V393.107L931.738 392.599V391.582L932.246 389.039V386.496L931.738 384.971L931.23 384.462V382.937L931.738 381.92V380.394L931.23 379.377L931.738 376.834V375.817L932.754 374.292L933.771 372.766L934.279 370.732L935.804 369.715L936.312 370.224L937.329 370.732H939.362L940.887 372.258L942.92 373.275L945.461 373.783H946.986H949.527L950.036 374.8L952.069 375.817H953.593L955.118 376.834H956.643L957.66 376.326L960.709 375.309L962.742 373.783L964.775 371.749L966.808 370.224H967.825L968.333 368.189L967.825 367.681L968.842 366.664L968.333 364.121L967.317 362.087L966.3 359.036L964.775 357.002L965.284 354.459H965.792V351.917L966.808 349.883L968.333 348.865L969.858 347.34V344.797L966.3 340.729L965.792 338.695L964.267 338.186L959.693 336.661L957.151 333.61V330.559L956.135 330.05L956.643 326.49L954.102 322.422L953.085 320.388L950.544 317.846L951.052 316.32L952.577 315.303L954.102 316.32L955.118 316.828L955.627 319.371L958.168 318.354L960.709 318.863L963.759 321.405L967.825 320.388L967.317 318.354L963.759 316.828L961.726 317.846L957.66 317.337L955.627 311.235L953.085 311.743L951.56 309.709L955.118 308.692V305.641L958.168 303.098H959.693V299.03L959.184 293.945L961.218 291.402L962.234 287.843L961.726 284.791H960.709L962.234 279.198L963.759 273.604L964.267 277.672L967.317 276.146L968.842 272.587L972.399 269.536L976.466 269.027L976.974 266.485L978.499 264.959L981.04 261.908L985.106 259.365H987.648L988.156 257.84L991.205 255.806L993.238 254.28L995.78 248.686L995.272 248.178L995.78 244.618L998.321 240.041L999.338 238.516L1001.37 232.922L1006.45 228.345L1008.49 227.837V226.311L1011.54 225.294L1020.18 223.768L1021.7 221.226L1024.75 221.734L1027.8 225.803L1029.33 224.786L1031.87 217.158L1036.44 217.666L1033.9 214.107L1036.44 209.021L1040.51 201.902L1043.56 200.376L1046.1 201.393L1045.59 196.308L1049.66 188.172L1050.67 181.561L1055.25 175.459L1060.84 170.882L1062.87 167.831L1063.89 163.763L1065.41 162.237L1071 161.729H1073.55L1080.66 164.78L1083.2 167.831L1088.28 175.459L1092.86 179.018L1096.42 183.087V184.104L1099.47 186.138L1108.11 187.663L1115.22 190.206L1118.27 191.223L1119.8 192.748L1125.9 194.783L1131.49 200.376L1136.57 202.41L1138.1 206.479L1141.14 208.004L1140.64 212.581L1141.65 219.7L1143.69 223.26L1144.7 228.345L1148.26 233.939L1152.84 238.516L1156.39 240.041H1159.44L1164.53 242.075L1167.07 243.601L1169.61 247.161L1178.76 253.263L1182.82 257.331L1185.36 260.382L1190.45 262.925L1193.5 265.976L1197.05 268.01L1200.1 273.095L1199.09 275.638L1199.6 277.672L1197.56 280.723V283.266L1194.51 285.3L1197.56 285.808L1202.14 281.74L1205.7 282.757L1207.73 280.723L1210.27 281.232L1217.39 285.808L1217.89 291.911L1215.86 300.047L1213.83 304.115L1216.37 304.624L1218.91 307.166L1221.45 307.675L1221.96 310.726L1220.94 314.794L1218.4 317.846L1218.91 319.88L1222.98 321.405L1225.01 319.371L1224.5 316.828H1227.04V320.897L1228.57 325.473L1232.63 328.016L1234.67 330.05L1233.65 333.61L1234.67 337.678L1237.21 340.221L1241.27 338.186L1243.31 335.135L1246.86 338.186L1247.88 343.272L1251.95 347.848L1252.46 351.408L1255.51 354.968L1260.08 355.985L1263.64 355.476L1262.62 356.493L1261.6 359.036L1262.11 361.07L1262.62 364.63L1266.69 366.664L1266.18 368.189L1263.64 371.241L1259.57 373.783L1256.01 376.834H1252.96L1250.42 374.8L1247.37 375.309L1239.75 373.275L1236.19 370.224L1233.65 365.138L1231.11 370.224L1228.06 365.647L1221.45 362.087L1223.99 358.527L1215.86 352.934L1214.84 354.968L1219.93 358.019L1218.91 360.053L1213.32 356.493L1205.7 352.425L1203.15 349.374L1198.58 348.865L1193.5 347.34L1194 345.306L1186.89 341.238L1179.27 338.186L1172.15 336.152L1164.53 336.661L1160.46 335.135H1154.36L1148.77 332.593L1139.11 331.067L1128.95 329.033L1118.27 326.999L1110.14 326.49L1103.02 326.999L1099.47 331.067H1097.43L1091.33 339.204L1084.73 346.831L1081.17 349.883L1077.1 351.408L1076.09 350.391L1069.48 353.442L1060.84 357.002L1051.69 360.053L1049.66 361.579L1046.1 362.596L1043.05 365.647L1041.02 368.698L1038.98 367.172L1034.41 368.698L1031.36 367.172L1028.82 363.104L1025.26 360.562L1023.23 361.07L1025.26 363.104L1023.23 365.647L1021.7 364.63L1017.64 365.138H1016.62L1013.57 364.121L1010.52 362.087H1008.49L1007.47 359.545L1005.44 355.985L1003.91 356.493L1003.4 354.968H1000.86L999.338 353.442L998.829 351.408L995.78 348.865L993.238 346.831L992.222 348.357L989.172 347.34L984.598 347.848L983.073 346.831H979.007L976.466 348.357L974.941 349.883L972.399 350.391L970.875 348.865L970.366 349.883L968.842 350.391L967.317 352.425L967.825 354.459L969.35 355.476L970.366 357.51V358.527L971.383 359.036L973.924 357.002L974.432 358.527L974.941 359.545V361.579L971.891 362.087L972.908 362.596L972.399 364.121L970.366 364.63L969.858 366.664L969.35 367.681V369.715L970.366 370.224L969.35 370.732L968.333 373.275L967.317 374.292L966.3 373.783H965.284L964.267 374.8L963.251 376.326L962.742 377.851H961.218L960.201 378.868H961.726L962.742 379.885L961.218 380.903L960.709 382.428L959.693 382.937H958.168L956.643 381.92L955.627 382.937L954.61 381.92L953.085 383.445L951.052 385.479L949.019 386.496L947.494 388.022L944.953 390.564L944.445 390.056L944.953 389.039L944.445 388.53L942.92 389.547L942.411 391.073L943.428 391.582V394.633L942.92 396.667L941.903 398.701L941.395 401.752L940.378 403.278L939.362 405.82V408.871L938.345 410.905L936.312 413.448L931.23 419.042L929.705 421.584L928.18 425.653V428.195L929.705 432.263L930.213 434.806L928.688 437.857L927.672 441.417L925.13 445.485L924.114 449.045L921.572 454.13L919.031 457.69L917.506 458.707L916.998 461.249L914.965 465.318L912.932 466.843L909.882 470.911L906.833 472.437L904.8 472.945L904.291 471.42L902.767 471.928L901.75 470.911H900.225L898.192 471.928H896.667L894.126 472.945L889.551 475.997L885.485 479.556L882.436 481.082L880.403 484.133L879.386 484.641L876.845 483.624L875.32 485.659L872.779 487.693L869.729 488.201L869.221 490.235L866.679 492.269L864.138 493.795H862.613L858.547 495.32L854.989 496.338L853.464 495.829L850.923 498.372V499.897L849.398 501.931L850.923 502.948L853.464 502.44H857.022L859.055 501.423L862.613 498.88L863.63 498.372L864.138 497.863L865.663 497.355V496.846L868.712 496.338L870.237 495.32L871.762 494.812L874.303 492.778L878.878 492.269L880.911 491.252L882.944 490.235H885.485L885.994 488.201L888.027 486.676L890.06 485.659H891.076L892.601 487.693V488.201L889.551 488.71L886.502 490.744L883.96 493.286L882.436 495.32L879.386 494.812H876.845L875.32 496.338L872.779 498.88L873.287 499.389L871.762 500.406L874.303 502.44L871.254 504.474L870.745 503.965L871.254 502.44L869.729 500.914L867.696 500.406L864.138 502.44L862.613 504.474L859.564 505.491L856.006 506.508L851.94 507.525L847.365 508.542L844.824 509.051L841.266 511.085L840.249 512.61H838.724L837.708 514.644L836.183 515.661L834.658 519.221L833.642 520.238H831.1L825.001 522.781L817.377 524.815L816.361 524.306L814.328 525.832L809.245 527.866L805.179 527.358L801.621 528.883L798.063 527.358L793.997 526.849L789.931 527.358L785.864 525.323L777.224 522.781L770.616 522.272H766.042L763.501 522.781L762.484 522.272L766.042 518.204L771.125 517.187L770.108 516.17H766.042L761.468 516.679V517.187L754.352 522.272L751.81 523.289L747.744 527.866L743.678 527.358L741.645 525.323L738.087 527.866L734.529 526.34L729.955 527.866L727.922 526.34L725.889 526.849L723.347 528.375L719.789 526.34L715.215 527.358L711.149 525.832L709.624 527.866L707.083 531.426L704.541 532.951L697.934 533.46L695.392 533.968L690.818 534.985L688.277 537.02L682.686 537.528L679.128 537.02L677.603 539.054L680.144 541.596L679.128 542.613L677.095 544.647L676.078 547.19L674.045 549.224L672.012 546.681L669.979 542.105L671.504 539.562L669.979 538.545L668.962 542.105L669.471 545.664L668.454 550.241L671.504 551.767V555.835L669.979 558.886L668.454 560.92L668.962 562.954L666.421 566.514L666.929 569.057L664.896 572.108H662.863L660.83 574.142L658.797 576.684L656.764 578.718L651.681 581.261L650.665 578.718L653.714 575.667L655.747 573.633L657.272 570.582L660.322 569.057L660.83 567.022L662.863 563.463V562.446L663.88 560.412L662.355 556.852L661.847 553.801L659.814 555.835L658.797 555.326L658.289 557.36L655.239 555.326V557.36L653.206 555.326L651.681 557.869L650.156 558.378L648.632 555.835L648.123 553.801L645.582 552.784L643.041 554.309L639.991 552.784L637.958 552.275L636.941 549.733L634.4 548.207V545.156L635.417 542.105V539.562L636.941 539.054L638.466 539.562L638.974 537.02H640.499L641.516 534.985L639.991 532.951L638.466 532.443L638.974 530.409L637.958 530.917L636.433 532.443V533.46L634.4 532.951L631.859 533.968L628.301 533.46L626.776 531.934L623.218 529.9L625.251 527.358L628.809 524.306L630.334 523.798L630.842 526.34L634.908 525.323L632.367 522.781L629.317 521.764L627.284 519.73L624.743 518.204L621.693 517.187V514.644L624.743 513.627L625.76 511.085L625.251 509.051L625.76 506.508L626.776 505.491L628.809 502.44H630.334L631.35 499.389H633.892L635.925 500.914V499.897L638.466 498.88L638.974 499.897L641.516 499.389L642.532 498.372L646.599 497.863L649.648 496.846H651.173L652.19 494.812H655.239L657.272 494.303L660.322 493.286H663.88L665.404 492.269L664.896 489.727V487.184L666.929 485.659V482.099L667.438 479.048H669.471L668.962 477.014L667.438 475.488L668.454 474.471L673.537 473.962L671.504 469.894L674.553 471.42V468.877L673.537 467.352L674.553 465.318L677.095 463.792L680.144 460.741L681.669 458.707L682.177 456.673L685.227 455.147L686.752 458.707L691.326 456.673L692.343 451.587L691.835 449.553L694.884 448.536L692.851 445.994L690.818 447.519L689.801 445.994V443.96V442.434L691.326 441.417L693.868 439.891V437.857L696.409 434.806L695.901 431.755L696.409 429.212H693.359L692.851 427.687L694.376 425.144H698.442L694.884 423.619V422.093L690.31 421.076L687.26 422.602L685.227 424.636L680.144 424.127L677.095 422.093L678.111 420.059L680.144 418.533L685.227 416.499L687.26 418.025L688.277 414.465Z" stroke="#444444" stroke-width="1.16263" stroke-linejoin="round"/>
<path d="M666.931 448.536L668.964 450.061L668.455 446.502L671.505 445.485L669.472 442.942L671.505 441.925H676.079L674.555 440.908H669.472L668.964 439.382L669.98 438.365L672.013 437.348H676.588H679.637L682.179 434.805L684.72 432.263L686.753 432.771V435.823L688.786 434.805L690.311 435.823L689.294 438.874L687.77 441.416V443.45L688.786 447.01L688.278 452.604L687.77 455.146H685.228L683.195 457.181V458.706L679.129 459.215V457.689V454.638L680.146 452.604V450.061L678.113 452.604L677.604 456.164L676.588 458.198H674.555L674.046 453.621L673.538 456.164L671.505 458.198L668.964 455.146L667.439 453.112L665.914 448.027L666.931 448.536ZM668.964 434.805L672.013 436.84L668.455 438.365L667.947 437.857V435.823L668.964 434.805ZM667.947 395.649L668.964 395.141L669.472 396.666L669.98 398.192L670.997 399.717V400.226L668.964 402.26H667.439L666.931 401.751L666.422 398.7L667.947 395.649Z" stroke="#444444" stroke-width="1.16263" stroke-linejoin="round"/>
<path d="M670.993 409.379L673.535 407.854L669.468 406.837L666.927 403.786L670.993 400.734L674.043 400.226L672.01 397.683L669.977 396.666L671.502 393.107L673.026 390.564L675.059 390.055L673.026 387.513L675.059 384.97V380.902L676.076 378.868L679.126 375.817L682.175 377.851L683.192 373.274L682.683 370.223L685.225 366.155L684.208 363.612L687.258 362.595L693.865 363.104L693.357 366.155L690.816 370.223L692.341 372.257L694.882 371.749L696.407 369.206L696.915 366.155L697.423 365.138L700.981 362.087L704.031 361.578V364.629L703.014 370.732L705.556 366.663L707.08 363.612L708.605 362.595L709.113 368.697L708.605 373.783L707.589 376.834L706.064 376.325L705.047 379.885L704.031 382.936L705.047 382.428L707.08 387.513L706.572 390.564L703.014 390.055L701.998 386.496L700.473 382.936L698.948 383.953H696.407L691.324 382.936L689.799 383.953L688.783 384.97L687.766 388.021L687.258 391.581L685.733 391.073L683.7 393.615V395.141L682.683 396.666L684.208 397.175L685.225 399.717V405.311L684.208 408.871L683.7 411.413L682.175 412.939L680.142 411.413V413.448L675.568 413.956L671.502 412.939L669.468 411.413L667.944 407.854L670.993 409.379ZM667.944 428.703L668.96 427.178L668.452 424.635H669.977L672.01 426.161L674.043 424.127L678.109 424.635L679.634 427.178L679.126 428.703L677.092 429.72L673.026 432.772L671.502 432.263L672.518 429.212L669.468 430.229L667.944 428.703ZM551.55 484.641L550.025 483.624L547.992 481.59V481.081L550.025 480.064L551.55 480.573L552.058 483.115L551.55 484.641ZM673.026 418.533L676.584 420.058V421.584L672.518 422.092H669.977L667.944 421.075L666.927 419.55V417.007L667.944 414.465L672.01 416.499L673.026 418.533ZM671.502 461.249L672.01 466.334L669.977 465.826L665.911 467.86L664.894 466.334L661.844 463.283L659.811 460.232L656.253 459.723L657.778 455.147L659.303 453.621L660.828 451.587L662.353 451.078L664.894 450.57L665.402 452.604L667.435 457.689L669.977 461.249H671.502ZM563.24 481.59L561.207 482.607L559.682 481.59L558.666 479.047L559.682 478.03L561.207 479.556L563.24 481.59ZM662.861 419.041L664.894 420.058L664.386 422.092L662.861 423.618L660.828 422.601L659.811 420.567L661.336 419.55L662.861 419.041ZM558.666 477.013L556.124 479.556L552.566 477.013L550.533 476.505V472.945L553.075 470.911H554.6L556.633 472.436L558.666 477.013ZM654.22 424.635L656.762 424.127H659.303L662.861 425.144L663.369 427.178L662.353 428.703L659.811 428.195V430.229L656.253 429.72L656.762 428.703L655.237 426.669L655.745 425.144L654.22 424.635ZM654.729 436.331H656.762L656.253 434.806L656.762 433.789L659.303 434.297L661.336 435.823V440.399L662.353 444.468L661.844 446.502L660.32 445.993L659.303 442.433L658.287 448.536L656.762 450.061L652.696 446.502L651.679 444.976L654.22 442.433L657.778 441.416L658.795 439.382L653.712 439.891L652.187 438.365L653.204 437.348L654.729 436.331ZM513.43 373.274V372.257L516.479 367.68L518.512 368.697L521.054 366.663L523.087 368.189V370.223L525.12 371.749L527.153 376.834L528.169 375.817L530.203 380.902L532.236 381.919L533.252 385.987L534.269 391.073L533.76 395.141L534.777 397.683V400.226H532.744L531.727 399.209L530.711 394.124L529.694 389.547L527.153 383.445L524.103 379.376L521.054 374.8L517.496 372.766L513.43 373.274ZM652.696 420.058L654.22 419.041V417.007L655.745 415.99H657.778L658.795 414.465L659.811 413.448V411.922V410.396L658.287 408.362L657.27 405.82V403.786L658.795 402.26L660.828 401.752L662.353 402.26L663.878 403.786V405.311L665.402 408.871L665.911 411.413L665.402 413.448L663.878 417.007L661.336 417.516H658.795L656.762 418.533L656.253 421.075L654.729 422.092L652.696 421.584V420.058ZM645.58 442.433L649.138 443.959L650.662 445.485V446.502L651.679 449.553V451.587L650.154 452.604L647.613 449.044L645.58 445.485L646.088 443.959L645.58 442.433Z" stroke="#444444" stroke-width="1.16263" stroke-linejoin="round"/>
<path d="M537.32 442.434L535.287 443.451L536.811 443.959L537.828 447.01L536.811 450.061L535.795 451.587L533.762 452.604L532.237 452.096L528.679 450.57H527.154V452.096V454.13L528.679 454.638L526.646 456.672H528.171L529.696 458.198L531.22 462.266L529.696 463.792L532.237 468.368L534.778 466.334L535.795 468.877L537.32 470.402L536.811 473.454L535.287 475.996L533.253 476.505L531.729 480.064L532.237 483.116L536.811 480.573L537.32 483.624L539.861 484.133L540.877 486.675L542.402 486.167L543.927 488.201L545.452 484.133L547.993 483.624L556.634 491.76V494.812L558.667 499.388L564.766 500.914L567.308 502.439L567.816 504.474L566.799 507.525L568.324 509.05L570.865 508.542L573.915 509.05L576.965 510.576H580.014L582.556 515.153L584.589 514.136L583.572 511.084L584.589 509.05L589.671 511.084H593.229L598.312 513.627L600.853 515.661L602.886 533.968L600.345 536.002L597.804 535.494L599.837 538.036L601.362 542.104L602.378 543.121L602.886 545.156L602.378 546.173L597.804 545.156L591.196 548.207L589.163 548.715L585.605 551.766L582.047 554.309L581.031 556.343L577.981 552.783L570.865 555.326L569.849 553.292L567.308 554.817L564.258 553.292L562.733 556.343L558.667 559.903L558.159 561.937L560.7 563.971L558.667 571.09L556.126 570.582L553.584 574.141L554.092 576.684L548.501 577.701L545.96 582.786H541.386L539.353 587.363L533.762 590.414V586.855L534.27 579.735L536.811 569.056L540.877 562.954L543.927 560.92L544.944 558.886H549.01L555.109 554.309L560.7 550.749L565.783 548.207L568.832 542.104H566.291L564.258 545.664L557.142 549.224V543.121H551.043L542.402 548.715L542.911 552.275L537.32 551.766L533.762 550.749L535.287 547.698L532.237 545.664L528.171 546.681L522.071 542.613L514.447 540.07L501.741 543.63L485.476 547.19L488.526 550.241L487.509 553.292L489.034 555.835L492.084 554.817L494.625 556.852V563.462L492.084 567.022L487.001 570.073L482.935 574.65L477.344 580.244L469.211 583.295L466.67 585.329L459.554 587.363L452.439 589.397L448.881 590.414L442.781 589.906L440.748 588.38L439.732 585.329H433.124L431.599 586.346L430.583 585.329L428.042 585.837L426.009 586.346L424.484 588.889L421.942 588.38H420.926H418.893L415.843 587.363H413.81L412.794 588.889H412.285L413.302 590.414L414.318 593.465V600.076L413.81 603.127L411.269 607.704L409.236 609.738L405.678 609.23L402.12 609.738L399.07 608.721L399.579 605.67L401.612 602.11L402.12 596.008L404.661 596.516L404.153 591.431L403.136 589.397L402.12 589.906H401.103V588.889L400.595 587.872L400.087 586.855L402.12 585.837H403.136V584.82L405.678 583.803V583.295L404.153 581.261L403.136 579.227L397.545 576.684L393.988 576.176L390.938 572.616L393.479 573.633L394.496 571.599L399.07 572.107L400.087 569.056L397.037 567.531L392.463 564.988L388.905 563.971L387.38 560.411L384.839 559.394L382.297 562.445L382.806 565.497L380.773 566.005L380.264 569.056L385.347 572.616L384.839 576.176V578.718L381.789 579.735L379.248 574.65L375.69 573.124L371.624 569.565L367.558 568.039L366.541 572.616L361.967 574.65L357.9 577.701L353.834 581.261L349.768 581.769L348.243 579.227L345.194 580.752L343.669 583.295H339.603L335.537 582.786L335.028 580.752L329.437 578.718L322.322 576.176L315.206 573.124L308.598 567.531L302.499 561.937L300.466 556.852L294.875 553.292L295.892 551.766L292.842 549.732L288.776 544.138L286.743 539.562L281.152 538.545L280.135 536.002L283.693 534.477L285.726 535.494L286.234 529.391L285.218 527.357L280.135 521.763L275.052 518.712L271.495 518.204L266.92 521.763L261.329 526.34L259.296 530.408L255.738 533.459L247.098 536.002H238.457L234.899 532.442L231.341 527.357L227.275 523.797L222.192 518.712L224.734 516.678L227.783 517.695L229.816 514.136L230.325 510.576L232.358 508.542L236.932 505.999L238.965 502.439L238.457 498.88L242.015 499.388L241.507 495.829H236.424L229.816 493.795L225.75 492.269L222.701 492.778V495.829L218.635 497.863L214.568 498.88L212.027 501.422L211.519 503.965L209.486 506.508L208.977 507.525L206.436 510.576L203.386 512.61L200.337 513.118H198.304L196.779 513.627L194.238 514.136L193.221 515.661L189.155 517.695H187.63L187.122 514.644L190.68 510.067L194.238 504.474L196.779 503.457L199.829 500.405L203.386 499.388L205.928 497.354H209.486L211.519 496.337L213.044 494.303L215.077 493.286L217.618 490.743L219.651 488.201L217.11 487.692L219.651 486.675H222.701L226.767 487.692L229.816 487.184L233.374 488.201L235.916 486.675H240.998L243.031 484.641L248.114 483.116L253.705 482.098L257.263 480.064L254.722 477.522L251.164 472.945V470.402L252.18 467.86L257.771 468.877L261.837 467.86L266.92 464.3L268.445 464.809L268.953 462.266L272.511 459.215L275.052 457.689L277.594 457.181L279.627 456.164L282.168 454.13V450.061L280.135 450.57L277.594 449.044L278.61 447.01L277.594 446.502L278.102 444.976L278.61 443.451L277.086 442.942V439.891L276.069 434.297L272.511 434.806L269.461 432.263L266.412 425.652L260.821 420.567L257.771 417.007L254.722 412.431H252.689L251.672 409.888L250.147 405.311L249.639 402.769L246.081 401.243L240.49 402.26L236.932 402.769L232.866 400.735H225.242H222.701L219.143 398.7L217.618 400.226L216.601 395.649L213.552 394.124L212.027 392.09L216.093 387.004L222.192 384.462L226.767 382.428L228.8 380.394L232.866 377.851L238.457 376.325L240.998 375.308L247.098 370.732L255.738 368.698L261.329 367.172H266.92L271.495 366.663L268.953 359.544L269.97 356.493L277.086 352.425L279.627 354.967L281.66 353.95L286.743 349.882L288.267 347.34L292.334 346.831L296.4 344.797V337.169L297.416 330.558L297.925 324.456L300.974 317.337L303.007 313.268L304.532 309.2L311.14 309.709L312.664 308.183V304.623L311.14 300.047L314.189 295.979L319.272 293.436L321.813 290.385L327.404 289.368L335.537 288.859V286.317L338.586 284.283L337.57 282.248L339.094 280.214H336.553L335.537 279.197H331.47H326.896L324.863 280.723H322.83L319.272 282.757L317.239 282.248L316.222 281.231H314.189L312.156 281.74H310.123H308.598L312.156 282.757L313.681 284.791V286.317L311.648 286.825L309.107 285.808L307.073 283.774H305.04V284.791L303.516 284.283L302.499 287.842L301.482 291.402L300.466 293.944L303.007 298.013L305.549 302.081L308.09 305.641L309.615 307.166L309.107 307.675L307.073 306.658L306.057 305.641L301.991 304.623L297.925 305.132L295.383 306.658L293.858 309.2L292.334 311.234L288.776 312.251L286.743 312.76L285.726 313.777L284.71 313.268L282.168 310.726L280.643 309.709L279.119 307.675L276.069 305.132L276.577 303.098L275.561 302.081L273.019 300.555L269.461 300.047L268.953 299.538L269.461 297.504L267.937 294.453L265.395 293.436L264.379 291.91L264.887 289.368L263.871 287.334L261.837 286.825V284.283L263.871 282.248L264.379 278.689L265.395 276.655L266.412 273.095L264.887 271.569L263.362 271.061L264.379 265.976L266.92 258.348L266.412 253.263L267.428 251.228L268.445 250.211V247.16L269.461 244.109L271.495 240.549L272.003 239.532L271.495 238.007L272.003 236.99L271.495 235.973L273.019 233.939L273.528 232.413L275.561 229.362H278.61L280.643 230.379H282.168L285.726 230.887L288.267 230.379L287.759 231.396L289.792 231.905L290.301 232.922L292.334 233.43L294.367 233.939L296.4 233.43L298.433 233.939L301.482 232.413L306.565 231.905L310.631 232.413L315.206 231.396L317.239 229.87L322.83 229.362L325.879 230.379L327.913 231.905L334.012 232.413L336.553 231.396L338.586 229.87H341.636L342.144 230.379H344.685L346.21 229.87L350.276 230.379L354.851 229.87H358.917L359.934 228.345L361.458 230.379L362.475 231.396L363.491 232.922H364L362.983 230.887L360.442 228.345L358.917 226.311V225.294L360.95 224.785L363.491 224.277L370.607 225.294V224.785L365.524 223.768L360.442 223.26L352.818 222.243H349.768H346.718L340.111 222.751V221.734L337.57 220.208L330.962 222.243H329.437L324.863 221.226V220.208L320.288 218.683L314.698 217.157L312.664 218.174L309.615 219.7L303.516 219.191L298.941 218.174L295.383 219.191L287.759 222.751L283.693 223.768L279.627 224.785L277.086 225.294L274.544 226.819L272.511 227.328L270.986 226.311L274.544 222.751L272.003 223.768L270.478 224.785H267.937L264.887 225.802L263.362 227.836L261.837 232.413L259.296 237.498L258.28 242.075L257.263 244.109V246.143L255.738 248.686L254.722 250.211L254.213 252.245L253.197 254.788V257.331L252.18 258.856L250.656 258.348L248.114 256.822L245.573 255.805L244.556 254.28L241.507 249.703L238.965 243.601L236.424 236.481L233.883 227.836L232.358 220.208L230.833 210.546V203.427L231.85 193.765V187.663L230.833 179.018L229.816 176.475V174.95L230.325 170.882L229.816 168.339L230.833 166.813L228.8 163.762L228.292 161.22L226.767 158.168V155.626L223.717 150.032L221.684 148.507L218.635 149.524L217.618 149.015L216.093 145.964L214.568 146.472L213.552 144.438L210.502 143.93L205.928 142.404L204.403 142.913L202.37 141.896L199.32 138.336L195.762 135.793L190.171 131.217L188.138 130.2L186.614 127.148L185.089 123.589L184.58 119.521L185.597 115.452L187.122 110.367L186.105 103.248L186.614 101.214L186.105 96.637L186.614 94.6029L184.072 92.0603L180.006 91.0433L177.465 90.0262L175.94 90.5347L175.432 91.0433L171.874 87.9921L170.349 85.958H168.824L167.808 84.4324V81.8898L168.824 78.3302L169.841 73.2449L169.332 70.7023L167.808 69.6852L166.791 70.1938L164.758 68.1597L162.725 65.1085L159.675 62.0574L158.659 60.0233L158.15 56.4636V55.4466L157.134 52.3954L155.609 49.8528L154.084 45.7846L152.559 39.6823L151.543 35.6141V32.0544L152.051 27.9862L153.068 26.4607L152.051 25.4436L154.084 23.918L154.593 21.8839L157.642 18.8328L158.659 16.7987L159.675 15.7817L160.184 11.2049L161.2 8.15379L160.692 5.10264L161.708 3.57707L164.25 3.06854L165.266 2.05149H168.316L167.808 1.54297L169.332 2.05149L171.874 3.57707L175.432 4.59412V6.11969L178.989 8.15379L184.58 8.66231L189.663 9.17083L197.287 10.1879L202.37 9.67936L206.436 10.1879L211.01 12.222L214.568 13.239L222.192 16.2902L227.275 19.3413L229.816 20.3584L232.358 19.8498H236.932L243.031 20.8669L246.081 21.3754L252.18 20.8669L255.23 22.3925L258.28 23.4095L261.329 25.9521L263.871 29.5118L265.395 30.5289L267.937 34.0885L268.953 36.1226L269.97 39.6823L270.986 42.2249L273.528 44.259L276.069 45.2761L278.102 44.7675L281.152 45.2761L284.201 45.7846L284.71 46.2931L285.218 48.3272L289.792 49.3443L292.842 50.3613L296.908 49.8528L297.416 50.8698H298.941L302.499 51.3784L309.107 50.8698L316.222 49.3443L321.813 48.8357H327.913L328.929 49.8528L329.437 51.3784L331.47 53.921L334.012 56.4636L335.028 55.9551L338.586 60.0233L341.128 62.5659H345.194L347.227 61.0403H349.768L351.293 60.5318L352.309 61.0403L354.343 55.9551L355.867 54.4295L356.376 52.3954L358.917 49.3443L362.475 49.8528L366.033 51.3784H370.607L373.149 48.3272L376.198 44.7675L378.231 41.2079L380.264 37.1397L383.314 29.0033L383.822 25.4436L385.855 20.8669L391.446 19.3413L392.971 17.3072L396.021 15.2731L398.054 12.7305L402.12 9.17083L404.153 6.62821L407.203 3.06854L408.219 2.56002L409.236 2.05149H415.335L421.434 3.57707L427.025 4.08559L432.108 5.61116H433.633L438.207 6.11969L442.273 7.64526L444.306 8.66231L446.848 11.7135L450.406 13.239L453.455 14.2561H454.98L456.505 14.7646L458.538 16.2902L459.554 16.7987H461.079L464.637 17.8157L466.67 17.3072L468.703 18.3243L469.211 18.8328L471.245 19.3413L472.261 20.3584L475.311 23.4095L475.819 25.4436L479.885 27.9862L482.935 28.4948L479.885 29.5118V33.58L480.393 36.1226L482.426 38.1567V40.6993L484.46 44.7675L487.509 48.8357L489.542 50.8698L490.559 52.9039L492.592 54.4295L495.641 55.4466L496.658 57.4806L497.675 59.5147L496.658 61.5488V64.0915L497.675 65.617L498.183 69.1767L497.675 72.7364L496.658 74.262L497.166 77.3131L498.691 79.3472L499.199 82.3983L497.675 84.941L498.183 90.5347L497.166 93.0774L494.117 95.62L493.1 100.197L492.084 102.231L491.575 107.316L496.15 111.893L497.166 115.961L498.183 118.504V122.572L496.15 126.64L495.133 130.2L496.15 135.793L496.658 138.845L494.117 140.37L491.067 139.862L488.526 142.404L484.46 143.93L482.935 144.947L481.918 149.524L479.377 153.083L478.869 156.134L476.836 159.694L472.261 164.779L467.687 169.356L465.654 169.865L464.129 173.424L461.079 175.967H459.046L457.521 178.001L455.996 182.069L453.963 183.595L452.439 181.561L451.422 185.12L450.406 184.612L449.897 181.561L448.372 180.035H446.339L443.798 176.984V173.424L441.257 171.899L439.732 173.424L437.19 172.407L435.666 172.916L431.599 174.95L430.583 176.475L428.042 178.001L422.959 180.035L418.893 178.509L415.843 180.544L410.76 183.086L406.186 184.612L405.678 186.646L406.186 189.188L409.236 190.714L410.252 193.257V196.816L409.236 199.359L405.169 202.41L402.628 201.902L401.612 202.919L400.087 203.427L397.545 205.97H396.021L392.971 210.038L389.921 212.072L386.364 214.106L384.839 215.123L384.33 218.174V220.208L382.806 223.26L380.773 225.294L378.231 224.785L378.739 226.311L376.198 228.345L374.165 230.887V232.922L374.673 234.447H375.182L376.198 236.481L378.739 239.024L379.248 240.041L381.789 243.092L383.314 246.143L386.364 247.669L387.38 249.194H389.921L390.938 251.228L391.955 249.194L394.496 247.16L393.479 243.601L396.021 238.515L400.087 237.498L402.628 234.447L401.612 232.413L402.628 229.87L406.694 228.345L408.727 225.294L413.81 226.311L417.368 225.802L419.401 229.362L422.451 228.853L423.975 234.447L420.926 238.515L422.959 241.566L418.893 246.652L419.401 251.737L418.385 255.805L415.335 260.89L409.236 264.45L404.661 268.01L403.136 272.078L401.103 274.621L401.612 279.706L403.136 281.231L406.694 282.248L409.236 281.231L410.76 279.706L412.794 279.197L418.893 277.163L422.451 274.621L426.517 273.604L426.009 276.146L428.55 280.723L431.091 280.214L430.583 285.3L431.599 285.808L432.616 282.757L437.19 283.774L436.682 281.231L437.699 278.689L437.19 275.129L434.141 273.604L432.108 274.112L430.583 277.163L429.058 275.638L430.075 272.078V266.484L432.108 265.467L433.633 267.501L436.682 265.467L437.19 266.484V270.044H438.715L442.273 266.484L444.306 267.501L445.323 264.959L443.798 262.416L441.765 258.348L440.748 257.839V255.805L441.765 255.297L437.19 251.228L436.682 248.686L434.649 245.635L431.599 244.618L429.566 243.601L426.517 245.126L426.009 244.109L428.042 240.549L427.533 238.515L427.025 234.956L429.566 235.464L430.583 235.973L432.108 234.447L433.633 233.43L435.157 229.362H431.599L432.108 227.328L433.124 225.802H436.174L435.666 224.785L432.616 223.768H429.566V222.243H426.517L424.484 222.751L422.451 221.226L425.5 219.7L422.959 219.191L423.975 217.157L419.909 215.632L421.434 213.598L424.992 212.581L429.058 214.106L432.108 215.632L434.649 216.14L438.207 216.649L439.224 217.157H439.732L440.748 217.666L443.29 217.157L445.323 218.683L447.864 221.226L448.881 222.751H449.897L450.406 222.243L452.439 222.751L453.963 222.243L457.521 221.226H460.063L463.112 220.208L467.687 220.717V221.226L470.228 221.734L471.753 222.751L473.786 221.734L472.769 219.7L474.802 220.208L475.819 221.226V222.243L478.36 221.226L478.869 218.174L476.836 216.649L475.819 215.123L473.278 214.106L469.211 214.615L465.145 213.089H459.554L457.521 215.123H455.996V213.598L452.439 214.615L449.389 215.632L445.323 216.14L444.306 215.632L443.29 214.106H446.339L448.881 212.581L447.356 209.529L444.306 210.038L442.781 208.004L443.798 206.987L441.765 202.919L442.273 201.393L443.29 202.41L444.815 204.444L445.323 205.461L448.372 206.478L450.914 207.495L452.439 206.987L454.98 207.495L457.013 206.478L459.554 206.987L461.587 205.461H465.145H469.72L473.278 205.97L477.852 209.021L479.377 208.512L482.426 208.004L482.935 206.478V203.427L483.951 202.41L484.46 198.342L490.559 195.291L493.608 191.223L492.084 188.68L490.05 186.646L490.559 182.069L493.608 178.509L492.592 176.984V172.916L491.067 168.847L488.017 167.83V164.271L486.493 161.22L488.017 158.677L487.509 153.592L491.067 150.541L494.117 148.507L495.133 145.455V142.913L496.658 141.896L498.691 142.404L501.232 143.93L504.282 142.404L504.79 140.37L506.823 139.862L507.84 138.336L509.365 141.896L511.398 144.438L512.923 143.93L514.447 144.947L515.972 147.998V150.541L516.989 152.575L518.005 155.626L519.022 157.151L520.547 158.168L521.563 159.694L523.088 162.745L525.121 163.762L523.088 169.865L519.53 171.899L515.972 174.95L512.923 176.984L510.89 179.018L506.823 183.086L507.332 186.646L512.923 195.291L518.514 196.816L521.563 197.325L526.138 195.291L528.679 197.833L526.138 201.902L521.563 204.953L525.629 208.512L522.071 209.021L519.53 217.666L521.563 221.734L520.547 224.785L519.53 227.328V229.87L522.58 237.498L521.055 241.566L519.022 242.584L519.53 243.601L518.005 245.126L516.989 244.618L517.497 247.669L519.53 248.686L521.563 250.72L524.613 252.245L528.679 256.314L529.187 257.839L529.696 259.365L528.171 260.89L528.679 262.416L528.171 264.959L526.138 262.925L525.629 261.399L524.105 260.382L522.58 260.89L521.563 258.856H522.58L521.055 254.788L518.514 253.263L516.989 251.737L513.939 252.754L512.414 251.228L510.89 253.771V255.805L506.823 256.314L504.79 255.805V258.348L503.774 262.925L502.757 266.484L500.216 267.501L499.199 266.993L497.166 269.027L498.691 271.061L497.675 274.621L501.741 277.163L504.79 279.706L506.823 282.757V285.808L502.249 284.791L501.232 286.317L504.282 289.368L506.823 291.402V290.385H509.365L511.906 291.91L510.381 294.962L508.348 297.504L505.299 299.03L503.266 301.064L502.757 304.623L506.315 304.115L509.873 300.555L512.414 296.487L515.464 292.927L518.514 293.944L521.563 293.436L524.105 296.996L527.662 299.03L528.679 301.572V305.132L527.662 312.251L527.154 313.777L528.679 314.794L532.745 314.285L534.778 310.726L534.27 307.166L532.237 305.132L532.745 300.047L534.27 294.453L530.204 288.351L526.138 286.825L522.071 286.317L518.514 280.723L519.022 278.18L512.414 271.569L509.365 266.993L511.906 265.467L509.873 261.399L511.906 259.365L516.481 262.416L522.58 265.467L529.696 269.535L533.253 271.061L532.745 263.942L534.778 261.399L538.844 260.382L542.911 263.433L551.043 271.061L552.059 275.129L551.551 283.265L552.568 290.385L552.059 299.03L551.043 311.234L549.518 316.32L547.993 324.964L545.96 329.033L543.419 330.05V335.643L540.877 337.169L539.353 339.712H533.762L534.778 337.169L531.729 335.643L531.22 338.186L527.662 337.678L523.596 340.729L514.447 343.78H511.398L508.348 342.254L507.84 339.203L508.857 335.643L518.005 330.558L518.514 329.033L513.431 329.541L507.332 325.982L504.282 327.507L502.249 328.016L503.774 329.541H506.315L506.823 331.575L500.724 334.118V336.152L504.79 336.661L505.807 342.763L504.282 344.288L501.741 345.305L503.774 347.848H507.332L509.365 349.882H512.923L508.348 353.95H505.299L506.315 351.408L503.774 350.391L501.232 350.899L500.724 353.95L503.266 355.476V360.053L504.282 367.172L503.266 368.189L501.232 365.646L499.708 367.681L500.724 369.206L499.199 372.257L500.216 375.308L496.658 376.834L499.199 379.377L502.757 378.36L503.774 379.885L500.724 384.462L498.691 386.496L491.067 392.09L493.608 393.615L496.658 392.09L497.675 392.598L498.691 390.564L500.724 392.09L504.282 392.598L505.807 393.107L508.857 397.683L512.414 399.718L512.923 401.243L510.89 404.803H508.348L504.79 402.26L503.266 402.769H500.216L494.117 401.243L491.067 402.769L488.017 401.752L481.41 397.683L480.393 399.718L481.918 400.735L482.935 402.769L485.476 403.277L487.509 404.803L490.559 403.786L493.608 405.311L494.117 403.277H496.658L501.232 405.311L505.299 403.786L507.84 407.345H510.89V408.362L508.348 408.871L503.774 407.345L502.757 408.871L506.315 408.362L507.84 411.414V414.465L505.299 417.007L509.365 415.99H514.447L515.464 418.533V422.093L515.972 425.144L518.514 424.127L521.563 425.652V427.178L524.105 429.212L525.121 432.263H526.138L527.154 435.314L526.138 436.331L529.187 438.365L529.696 440.4L531.729 439.891L533.762 440.4L536.303 441.925L535.795 443.959L534.27 442.942L537.32 442.434ZM390.43 307.166L386.364 307.675L385.347 309.2L383.822 309.709L384.839 306.658L381.281 304.623L379.756 303.098L379.248 301.572L376.706 300.555L372.64 300.047L370.099 303.098L366.541 304.623L364 309.2L363.491 315.303L364.508 315.811L368.066 316.32L372.64 318.862L375.182 316.828L378.231 318.862L379.248 316.828L382.806 318.862L380.264 321.405L380.773 324.964L384.33 323.439H387.38V320.388L384.33 318.862H387.888H388.905L390.43 320.388H392.463L395.512 317.337H400.087L402.12 315.811L403.645 316.32L401.612 319.371L404.661 320.896L404.153 323.947L402.12 326.49L406.186 328.524L409.236 329.033L410.252 325.982L412.285 323.947L411.777 319.879L412.285 316.828L411.777 314.285L412.794 311.234L409.744 306.149L404.153 307.166L401.103 305.641L393.988 307.166H390.43ZM650.664 419.041V421.584H649.139V419.55L650.155 419.041H650.664ZM647.106 436.331L648.122 438.874L646.089 439.891L645.073 438.365V436.84L646.089 435.823L647.106 436.331Z" stroke="#444444" stroke-width="1.16263" stroke-linejoin="round"/>
<path d="M562.732 363.613L563.749 360.561H565.782V362.087L566.799 363.104L565.782 365.138L564.766 363.613H562.732ZM643.039 434.297L643.547 435.823L643.039 437.349L642.531 436.84L641.514 435.315L642.022 434.806L643.039 434.297ZM647.613 421.076L648.63 422.601L647.613 423.11H645.58H643.547L644.056 422.093L644.564 421.584L646.597 420.567L647.613 421.076ZM646.089 425.144H648.122L647.613 426.67L645.58 428.195L645.072 430.229L643.547 428.704L642.022 429.721L639.989 429.212L641.006 427.687L643.039 425.653L646.089 425.144ZM541.893 438.366L538.844 433.789H544.943L545.451 434.297V434.806L543.926 437.857L541.893 438.366ZM571.881 369.206L567.815 367.172L568.832 364.121L567.815 360.053L568.323 358.527L567.307 353.951L568.323 352.934L571.373 354.968L570.865 357.002L572.39 358.019L575.439 361.579L576.964 365.647L575.439 368.189L574.423 366.664L573.406 367.172L573.914 369.206L572.898 369.715L571.881 369.206ZM568.323 375.817L566.29 375.309L565.782 372.258L567.307 370.223L569.848 369.715L570.356 370.732L571.373 370.223L572.898 372.258L571.373 374.8L569.848 374.292V376.326L568.323 375.817ZM555.108 391.581V390.056V389.039L554.6 388.53V387.005H556.125L557.141 388.53L558.158 387.005V389.039L557.65 390.056L556.633 389.547L557.141 390.564V391.581L555.617 392.09L555.108 391.581ZM542.91 432.772L541.893 430.738L542.402 427.687L543.926 426.161L546.976 425.144L547.484 424.127L550.534 425.653L551.55 427.178L549.517 429.212L545.959 432.263L542.91 432.772ZM639.481 412.431L641.006 411.414L642.531 412.431L646.597 413.957L647.105 415.482L646.597 417.516L644.564 418.533H642.531L641.006 417.516V419.042L639.481 420.059L636.94 420.567L634.907 419.55L633.382 419.042L632.874 418.025L631.857 418.533L631.349 416.499L633.89 415.482L634.907 413.957L635.923 412.431H639.481Z" stroke="#444444" stroke-width="1.16263" stroke-linejoin="round"/>
<path d="M619.15 402.769L618.642 401.243V399.718L619.15 397.684L620.167 397.175L622.708 397.684L624.233 398.701H625.758L624.741 397.175L628.299 397.684L630.332 398.192H634.907L636.432 399.718L637.448 400.226L638.973 402.769V401.243L639.989 401.752L642.023 400.226L644.056 400.735L646.089 401.752H648.122L650.155 402.769L651.171 402.26L650.663 400.735L651.68 400.226L655.237 402.769L654.729 405.82L656.254 408.871L655.746 410.397V412.431H653.204L651.68 410.397L648.122 410.905L647.613 410.397L649.138 407.346L646.089 408.871L645.58 410.397L643.547 409.888L642.023 408.363H640.498L638.973 409.888L636.432 410.397V407.854L636.94 407.346L634.907 406.329V408.363L635.415 411.414L633.89 412.939L631.857 413.448L630.332 414.465H628.807L627.791 413.448V412.431L626.774 410.905L624.741 410.397V409.38L625.758 408.363H623.217L622.2 407.854L621.183 406.837L620.675 405.312L621.183 404.803L619.659 403.277V401.752L619.15 402.769ZM601.361 387.005L599.328 381.919L600.853 380.394L603.394 380.902L606.444 381.919V380.902L604.411 380.394L602.886 377.851L601.361 378.868V376.834L602.886 374.292L600.853 375.817L597.295 376.834L595.262 375.309V372.766L598.82 369.206L599.328 368.189L601.869 367.681L600.344 367.172L601.869 363.613L603.394 361.07L604.919 356.493L604.411 352.934L606.444 353.442L608.985 352.934L607.46 349.882L608.477 346.323H610.002L609.493 341.746L612.543 342.763L611.526 340.22L612.543 339.203L615.084 339.712L617.117 340.729L616.609 337.169L617.626 335.135L619.659 338.186L620.675 337.678L619.15 335.644L618.134 332.084L619.15 328.524L622.2 329.033L622.708 331.067L623.217 334.118L624.233 331.067L627.283 330.05L623.217 327.507L621.183 325.982L627.283 324.965L633.382 324.456L638.973 325.982L641.006 326.999L643.547 326.49L648.63 324.456H654.221L655.746 324.965L658.795 325.982L661.845 326.999L665.403 325.982L667.436 323.948L670.486 322.422H676.077L678.11 319.371L681.668 317.337L685.734 315.303L688.275 317.337L687.767 322.422L690.816 325.982L690.308 329.033L687.767 333.101L685.734 339.203L684.209 341.746L681.159 344.289L679.634 348.865L676.585 350.391L676.077 352.425L670.486 353.951L667.436 352.934L665.403 353.442L662.353 355.476L664.895 355.985L665.911 356.493L667.436 357.51V360.053L664.895 361.578L662.353 362.596L661.337 361.578L660.32 358.527L659.812 362.087L659.304 364.121L660.828 365.138V366.664L656.254 367.681L655.237 369.206L653.204 371.749L650.155 375.309L649.647 377.343L648.122 378.36L647.613 382.428L648.63 384.971L650.155 387.513L651.68 390.056L650.663 391.581L648.63 394.124L646.089 392.09L645.072 390.056L645.58 394.633L644.564 397.175L642.531 397.684L638.973 395.141L635.415 392.598L633.382 393.107L632.874 395.65H630.841L626.266 394.633L625.25 393.615L623.217 394.633L621.183 393.615L619.15 392.09L617.626 390.564L618.134 389.039L615.084 390.564V388.022L614.576 387.005V384.971L614.068 388.022L612.543 389.547L609.493 390.564L607.968 389.039L606.444 390.056L604.411 389.547L601.361 387.005Z" stroke="#444444" stroke-width="1.16263" stroke-linejoin="round"/>
<path d="M690.812 469.386L692.337 471.928L693.862 466.843L694.37 467.352L694.879 467.86L696.403 468.877L696.912 469.386L695.895 472.437H696.403H696.912L697.42 472.945L697.928 477.522L697.42 477.014L695.895 475.488H695.387L695.895 479.556L694.879 480.573L694.37 480.065L693.354 477.522H692.846L690.304 482.099L689.796 481.59M730.457 460.232L731.474 464.3H730.966H730.457L728.424 458.198L730.457 452.096M428.545 490.744L429.054 490.235L430.578 491.252L431.595 491.761L432.612 492.269L434.645 492.778L436.678 493.286H440.744L443.285 492.269H444.81L445.318 493.286L441.76 494.812L440.236 495.32L438.202 495.829L435.661 496.846H434.645L435.153 495.829L433.12 495.32V495.829H432.103L431.595 494.812L430.07 494.303L428.545 493.286L427.529 492.269L426.512 490.235L424.987 489.218L423.463 488.71L421.938 487.693L421.43 486.675V485.15V483.116L421.938 482.607L422.446 483.116L422.954 484.641L423.971 486.675L425.496 487.693L427.021 488.71L427.529 489.218L428.545 490.744ZM756.887 434.806L755.363 431.755L756.379 431.246L759.429 430.738L768.578 427.178L771.627 426.67L772.644 428.195L771.119 428.704L767.561 429.721L764.512 432.772L759.429 435.823L756.887 434.806ZM714.701 468.877L711.652 469.894H710.635L711.143 469.386L713.176 466.843L715.718 464.809L714.701 460.741L713.176 458.198L712.668 456.164L713.685 454.638L714.193 454.13H714.701L715.209 456.673V459.724L717.751 463.792L719.276 466.843L718.767 471.42L718.259 473.962L715.209 477.014L714.701 477.522H714.193V477.014L716.226 473.962L715.718 470.911L714.701 468.877ZM803.14 367.172L803.648 368.189V369.715L801.615 369.206L800.599 368.189L799.582 366.155L798.566 363.613L799.074 362.087L798.057 361.579L797.041 360.561V359.544L797.549 359.036L799.582 358.019L801.615 360.053V362.596L802.124 365.138L803.14 367.172ZM811.272 378.868V376.834L809.239 374.8L807.714 373.783L807.206 372.766V370.732L806.19 370.223L805.173 368.698L804.157 366.155H804.665L808.223 368.189L810.256 370.223L811.272 371.749L812.797 373.275L813.814 375.817V377.851L813.305 380.394L811.272 378.868ZM784.334 405.312L782.301 404.295L781.284 402.769L780.268 402.26L779.76 401.752L780.268 398.701V396.667L780.776 395.65L783.318 394.124L783.826 390.564L785.351 391.073L786.367 389.547H788.4L788.908 388.022L790.433 388.53V389.547L788.908 390.564L789.417 393.616L790.942 396.158L789.417 398.701L788.908 400.735L786.367 400.226L788.4 402.769L789.925 405.312L791.45 407.854L789.925 409.888L790.942 412.939H790.433L787.892 410.905L785.859 408.871L784.334 405.312ZM257.767 151.049L255.225 150.541L252.684 147.998V144.947L252.176 142.404L249.634 142.913L250.143 139.862H250.651L252.176 137.319L252.684 134.777H254.717L256.75 137.828L258.783 139.862L260.308 140.879L261.325 144.439L259.8 147.49L259.292 150.032L257.767 151.049ZM508.344 304.624V308.183L503.261 309.2L500.72 308.692L500.211 308.183L500.72 307.675L499.703 306.658L501.228 305.132L500.211 304.115L501.228 303.607L502.244 304.115L505.294 304.624L506.311 305.132L508.344 304.624ZM391.95 406.329L391.442 407.346L390.425 406.329L389.917 404.803L390.425 400.735L391.442 395.65L391.95 395.141L390.933 394.633V393.107L389.917 392.598L389.409 391.073L384.834 390.056L387.884 388.53H388.9L389.917 389.547H390.425V390.564L391.442 391.073L392.966 393.616L392.458 397.684L391.442 400.735V402.769L390.425 404.295L391.442 404.803L391.95 406.329ZM235.911 113.927L236.928 112.91L237.944 114.436L239.469 113.927L241.502 114.944L245.06 114.436L248.618 114.944L249.634 116.978L252.176 117.487L257.258 122.572L252.684 121.046L251.159 119.521L250.143 120.029L248.618 118.504L246.585 117.995L246.077 115.961L241.502 116.978L238.961 115.453L233.37 114.436V113.927H235.911ZM204.398 112.91L206.432 112.402L205.923 110.876H206.94L207.956 111.893H209.481L211.006 113.419L214.564 114.436L215.58 116.978L219.647 120.029L222.696 120.538L223.713 121.555L220.663 122.064L217.105 119.521H215.072L212.531 115.961L207.956 112.91L207.448 113.419L204.398 112.91ZM390.933 346.831V345.814L392.458 343.78L395 345.306L396.016 345.814L396.524 344.797L395.508 344.289L393.983 343.78L391.95 341.746L393.475 341.238L395.508 341.746L397.541 343.78L399.066 344.289V345.814L397.541 346.323L400.082 347.34L399.574 347.848L398.557 348.865H397.541V348.357L396.524 347.848V348.865L392.966 348.357L390.933 346.831ZM529.691 271.061L528.674 270.044V268.01L529.183 266.993L529.691 266.484L530.708 267.501L531.216 268.01V268.519L530.708 269.027V269.536V271.061H529.691ZM882.938 357.002V358.019H881.922V357.002H882.938ZM956.637 376.834V378.868L954.604 380.902H952.571V379.377L954.604 377.343L956.637 376.834ZM291.821 199.868H292.837V201.393L291.821 202.41L290.296 201.393V200.376L291.821 199.868ZM1092.85 322.422L1091.84 323.948L1090.82 324.965V324.456H1090.31H1089.3L1089.8 323.439L1092.85 320.897L1095.4 319.879L1095.9 320.897V321.405L1095.4 321.914L1094.89 322.422H1093.87H1092.85ZM760.445 436.332V437.349L759.429 439.383L758.412 439.891L757.396 438.874H756.887L756.379 438.366L755.871 437.857V437.349H756.379L756.887 437.857V436.84H757.396L758.921 437.349L759.429 436.332V435.315L760.445 436.332ZM501.736 318.354L499.195 317.337L497.162 316.828L496.653 315.811L497.67 314.286L499.195 313.777L498.178 314.286L497.67 314.794H499.703H500.72H502.753L504.277 315.303H504.786L503.769 315.811L504.786 316.32H503.769H502.753V316.828V317.337H504.277H506.311L505.802 317.845H505.294L501.736 318.354ZM810.256 485.15H811.272L812.797 485.658L811.272 487.184L808.731 487.693L809.748 486.675L810.256 486.167V485.15ZM738.082 440.908L738.59 439.891L740.623 441.417H741.131L744.689 445.485H744.181L743.164 444.976H743.673L742.148 443.451L740.623 443.959H739.606L737.573 441.925L738.082 440.908ZM792.466 374.292L796.024 371.24L798.057 371.749V374.292L795.516 376.834L798.566 375.817L801.615 376.834L804.157 376.326H805.681L807.714 377.851L805.681 378.36L803.14 379.377L802.632 380.902L805.173 382.428V382.937L804.157 383.445L802.124 381.919H800.09L798.057 382.428L796.533 384.971L796.024 388.022L795.516 387.513L794.499 384.971L792.975 387.005L791.958 386.496L792.975 385.479L793.483 382.937L792.975 380.394V377.851L793.483 374.8L792.466 374.292Z" stroke="#444444" stroke-width="1.16263" stroke-linejoin="round"/>
<path d="M792.469 391.073V388.53L792.977 389.039H795.01L795.518 389.547H798.06L796.535 390.056L798.06 391.073L799.585 391.581L802.126 392.09H804.159L807.209 390.564L810.766 390.056L813.308 391.073L814.324 391.581L814.833 392.598V393.616L814.324 394.124L811.783 395.65H810.258H809.242L806.7 396.667H803.651H800.093L796.027 395.65V396.158L799.585 398.192L799.076 398.701L797.043 397.684L793.485 396.158L792.977 394.124L792.469 391.073Z" stroke="#444444" stroke-width="1.16263" stroke-linejoin="round"/>
</svg>
