<?xml version="1.0" encoding="utf-8"?>
<!-- Generator: Adobe Illustrator 24.1.0, SVG Export Plug-In . SVG Version: 6.00 Build 0)  -->
<svg version="1.1" id="Layer_1" xmlns="http://www.w3.org/2000/svg" xmlns:xlink="http://www.w3.org/1999/xlink" x="0px" y="0px"
	 viewBox="0 0 1200 600" style="enable-background:new 0 0 1200 600;" xml:space="preserve">
<style type="text/css">
	.st0{fill:#000099;}
	.st1{fill:#FFD900;}
	.st2{fill:#CC1111;}
</style>
<polygon class="st0" points="800,0 400,0 0,0 0,600 400,600 800,600 1200,600 1200,0 "/>
<g>
	<path class="st1" d="M506.1,375.1c-0.1,0.6-0.2,1.2-0.2,1.9c0,52,42.1,94,94,94s94-42.1,94-94c0-0.6,0-1.1,0-1.7
		c-16.3,37.4-53.2,61.5-94,61.6C559.3,436.7,522.3,412.5,506.1,375.1L506.1,375.1z"/>
	<circle class="st1" cx="600.1" cy="351.3" r="68.4"/>
	<path class="st1" d="M607.2,129c-8.5,3.9-11.7,10.8-12.4,17.7c-0.5,5.8,2.1,12.4,2.4,18.1c0,9.8-10.2,13-10.2,27.1
		c0,4.8,4.5,10.1,4.5,22.6c-0.8,6.5-4.4,8-8.6,8.6c-4.7,0-8.6-3.8-8.6-8.6c0-2.2,0.8-4.3,2.4-5.9c0.3-0.3,0.5-0.6,0.9-0.8
		c2-2,4.6-2.7,4.6-7.9c0-2.7-1.7-5.1-3.4-9.8c-1.6-4.6-0.5-12.2,3.3-16.8c-6,2.3-9.7,8-11.5,13.2c-2,6.3-0.2,9.9-3,15.2
		c-1.7,3.4-3.6,4.8-5.5,7.7c-2.2,3.1-4.8,10.3-4.8,13.7c0,23.6,19.1,42.8,42.8,42.8l0,0c23.6,0,42.8-19.1,42.8-42.8l0,0
		c0-3.3-2.6-10.6-4.8-13.7c-1.9-2.8-3.9-4.2-5.5-7.7c-2.7-5.2-1-8.9-3-15.2c-1.9-5.2-5.6-10.9-11.5-13.2c3.7,4.6,4.9,12.2,3.3,16.8
		c-1.7,4.7-3.4,7.1-3.4,9.8c0,5.2,2.7,5.9,4.6,7.9c0.3,0.2,0.6,0.5,0.9,0.8c1.5,1.6,2.4,3.7,2.4,5.9c0,4.7-3.8,8.6-8.6,8.6
		c-4.7-0.6-8.1-2.8-8.6-8.6c0-16.5,7.1-17.5,7.1-29.7c0-17.4-15.6-25.6-15.6-38.4C600.1,142.2,601.1,134.8,607.2,129L607.2,129z"/>
</g>
<g>
	<rect y="46" class="st2" width="1200" height="46"/>
	<rect y="508" class="st2" width="1200" height="46"/>
</g>
</svg>
